<mxfile host="app.diagrams.net" agent="Mozilla/5.0 (Windows NT 10.0; Win64; x64) AppleWebKit/537.36 (KHTML, like Gecko) Chrome/137.0.0.0 Safari/537.36" version="27.1.4">
  <diagram id="C5RBs43oDa-KdzZeNtuy" name="Page-1">
    <mxGraphModel dx="2564" dy="950" grid="1" gridSize="10" guides="1" tooltips="1" connect="1" arrows="1" fold="1" page="1" pageScale="1" pageWidth="827" pageHeight="1169" math="0" shadow="0">
      <root>
        <mxCell id="WIyWlLk6GJQsqaUBKTNV-0" />
        <mxCell id="WIyWlLk6GJQsqaUBKTNV-1" parent="WIyWlLk6GJQsqaUBKTNV-0" />
        <mxCell id="gfp63LvyVMhGW3rorWsU-0" value="start" style="ellipse;whiteSpace=wrap;html=1;" parent="WIyWlLk6GJQsqaUBKTNV-1" vertex="1">
          <mxGeometry x="310" y="40" width="120" height="80" as="geometry" />
        </mxCell>
        <mxCell id="gfp63LvyVMhGW3rorWsU-9" value="" style="edgeStyle=orthogonalEdgeStyle;rounded=0;orthogonalLoop=1;jettySize=auto;html=1;" parent="WIyWlLk6GJQsqaUBKTNV-1" source="gfp63LvyVMhGW3rorWsU-1" target="gfp63LvyVMhGW3rorWsU-4" edge="1">
          <mxGeometry relative="1" as="geometry" />
        </mxCell>
        <mxCell id="gfp63LvyVMhGW3rorWsU-1" value="Задать правую границу перемещений&amp;nbsp; = длина массива - 1" style="rounded=1;whiteSpace=wrap;html=1;" parent="WIyWlLk6GJQsqaUBKTNV-1" vertex="1">
          <mxGeometry x="310" y="330" width="120" height="60" as="geometry" />
        </mxCell>
        <mxCell id="gfp63LvyVMhGW3rorWsU-6" value="" style="edgeStyle=orthogonalEdgeStyle;rounded=0;orthogonalLoop=1;jettySize=auto;html=1;" parent="WIyWlLk6GJQsqaUBKTNV-1" source="gfp63LvyVMhGW3rorWsU-2" target="gfp63LvyVMhGW3rorWsU-3" edge="1">
          <mxGeometry relative="1" as="geometry" />
        </mxCell>
        <mxCell id="gfp63LvyVMhGW3rorWsU-2" value="Задать массив" style="rounded=1;whiteSpace=wrap;html=1;" parent="WIyWlLk6GJQsqaUBKTNV-1" vertex="1">
          <mxGeometry x="310" y="150" width="120" height="60" as="geometry" />
        </mxCell>
        <mxCell id="gfp63LvyVMhGW3rorWsU-8" value="" style="edgeStyle=orthogonalEdgeStyle;rounded=0;orthogonalLoop=1;jettySize=auto;html=1;" parent="WIyWlLk6GJQsqaUBKTNV-1" source="gfp63LvyVMhGW3rorWsU-3" target="gfp63LvyVMhGW3rorWsU-1" edge="1">
          <mxGeometry relative="1" as="geometry" />
        </mxCell>
        <mxCell id="gfp63LvyVMhGW3rorWsU-3" value="Задать левую границу перемещений = 0" style="rounded=1;whiteSpace=wrap;html=1;" parent="WIyWlLk6GJQsqaUBKTNV-1" vertex="1">
          <mxGeometry x="310" y="240" width="120" height="60" as="geometry" />
        </mxCell>
        <mxCell id="gfp63LvyVMhGW3rorWsU-4" value="Задать флаг наличия перемещений, по умолчанию = true" style="rounded=1;whiteSpace=wrap;html=1;" parent="WIyWlLk6GJQsqaUBKTNV-1" vertex="1">
          <mxGeometry x="310" y="420" width="120" height="60" as="geometry" />
        </mxCell>
        <mxCell id="gfp63LvyVMhGW3rorWsU-5" value="" style="endArrow=classic;html=1;rounded=0;exitX=0.5;exitY=1;exitDx=0;exitDy=0;entryX=0.5;entryY=0;entryDx=0;entryDy=0;" parent="WIyWlLk6GJQsqaUBKTNV-1" source="gfp63LvyVMhGW3rorWsU-0" target="gfp63LvyVMhGW3rorWsU-2" edge="1">
          <mxGeometry width="50" height="50" relative="1" as="geometry">
            <mxPoint x="390" y="320" as="sourcePoint" />
            <mxPoint x="440" y="270" as="targetPoint" />
          </mxGeometry>
        </mxCell>
        <mxCell id="tacyu3_ozz2BBdDtRD9w-12" value="" style="edgeStyle=orthogonalEdgeStyle;rounded=0;orthogonalLoop=1;jettySize=auto;html=1;" parent="WIyWlLk6GJQsqaUBKTNV-1" source="gfp63LvyVMhGW3rorWsU-10" target="tacyu3_ozz2BBdDtRD9w-11" edge="1">
          <mxGeometry relative="1" as="geometry" />
        </mxCell>
        <mxCell id="tacyu3_ozz2BBdDtRD9w-14" value="Да" style="edgeLabel;html=1;align=center;verticalAlign=middle;resizable=0;points=[];" parent="tacyu3_ozz2BBdDtRD9w-12" vertex="1" connectable="0">
          <mxGeometry x="-0.58" y="1" relative="1" as="geometry">
            <mxPoint as="offset" />
          </mxGeometry>
        </mxCell>
        <mxCell id="0VyIlZetMQkuFZgaHiZZ-38" value="" style="edgeStyle=orthogonalEdgeStyle;rounded=0;orthogonalLoop=1;jettySize=auto;html=1;" parent="WIyWlLk6GJQsqaUBKTNV-1" source="gfp63LvyVMhGW3rorWsU-10" edge="1">
          <mxGeometry relative="1" as="geometry">
            <mxPoint x="1350" y="2430" as="targetPoint" />
          </mxGeometry>
        </mxCell>
        <mxCell id="gfp63LvyVMhGW3rorWsU-10" value="Если правая&amp;nbsp;&lt;div&gt;граница перемещений&lt;div&gt;&amp;nbsp;больше левой&amp;nbsp;&lt;/div&gt;&lt;/div&gt;" style="rhombus;whiteSpace=wrap;html=1;" parent="WIyWlLk6GJQsqaUBKTNV-1" vertex="1">
          <mxGeometry x="245" y="520" width="250" height="120" as="geometry" />
        </mxCell>
        <mxCell id="gfp63LvyVMhGW3rorWsU-11" value="" style="endArrow=classic;html=1;rounded=0;exitX=0.5;exitY=1;exitDx=0;exitDy=0;entryX=0.5;entryY=0;entryDx=0;entryDy=0;" parent="WIyWlLk6GJQsqaUBKTNV-1" source="gfp63LvyVMhGW3rorWsU-4" target="gfp63LvyVMhGW3rorWsU-10" edge="1">
          <mxGeometry width="50" height="50" relative="1" as="geometry">
            <mxPoint x="390" y="610" as="sourcePoint" />
            <mxPoint x="440" y="560" as="targetPoint" />
          </mxGeometry>
        </mxCell>
        <mxCell id="tacyu3_ozz2BBdDtRD9w-6" value="" style="edgeStyle=orthogonalEdgeStyle;rounded=0;orthogonalLoop=1;jettySize=auto;html=1;" parent="WIyWlLk6GJQsqaUBKTNV-1" source="gfp63LvyVMhGW3rorWsU-13" target="gfp63LvyVMhGW3rorWsU-14" edge="1">
          <mxGeometry relative="1" as="geometry" />
        </mxCell>
        <mxCell id="gfp63LvyVMhGW3rorWsU-13" value="Задать счетчик&amp;nbsp; =&amp;nbsp; левой границе перемещений" style="rounded=1;whiteSpace=wrap;html=1;" parent="WIyWlLk6GJQsqaUBKTNV-1" vertex="1">
          <mxGeometry x="310" y="820" width="120" height="60" as="geometry" />
        </mxCell>
        <mxCell id="x1Og1Ffo0mNl0eoL6dnK-1" value="" style="edgeStyle=orthogonalEdgeStyle;rounded=0;orthogonalLoop=1;jettySize=auto;html=1;" parent="WIyWlLk6GJQsqaUBKTNV-1" source="gfp63LvyVMhGW3rorWsU-14" edge="1">
          <mxGeometry relative="1" as="geometry">
            <mxPoint x="370" y="1070" as="targetPoint" />
          </mxGeometry>
        </mxCell>
        <mxCell id="gfp63LvyVMhGW3rorWsU-14" value="Задать количество перемещений =&amp;nbsp;&lt;div&gt;правой границе перемещений&lt;/div&gt;" style="rounded=1;whiteSpace=wrap;html=1;" parent="WIyWlLk6GJQsqaUBKTNV-1" vertex="1">
          <mxGeometry x="310" y="940" width="120" height="60" as="geometry" />
        </mxCell>
        <mxCell id="tacyu3_ozz2BBdDtRD9w-11" value="Флаг перемещений установить false" style="rounded=1;whiteSpace=wrap;html=1;" parent="WIyWlLk6GJQsqaUBKTNV-1" vertex="1">
          <mxGeometry x="310" y="710" width="120" height="60" as="geometry" />
        </mxCell>
        <mxCell id="tacyu3_ozz2BBdDtRD9w-13" value="" style="endArrow=classic;html=1;rounded=0;exitX=0.5;exitY=1;exitDx=0;exitDy=0;entryX=0.5;entryY=0;entryDx=0;entryDy=0;" parent="WIyWlLk6GJQsqaUBKTNV-1" source="tacyu3_ozz2BBdDtRD9w-11" target="gfp63LvyVMhGW3rorWsU-13" edge="1">
          <mxGeometry width="50" height="50" relative="1" as="geometry">
            <mxPoint x="200" y="840" as="sourcePoint" />
            <mxPoint x="250" y="790" as="targetPoint" />
          </mxGeometry>
        </mxCell>
        <mxCell id="x1Og1Ffo0mNl0eoL6dnK-37" value="" style="edgeStyle=orthogonalEdgeStyle;rounded=0;orthogonalLoop=1;jettySize=auto;html=1;" parent="WIyWlLk6GJQsqaUBKTNV-1" source="x1Og1Ffo0mNl0eoL6dnK-2" target="x1Og1Ffo0mNl0eoL6dnK-10" edge="1">
          <mxGeometry relative="1" as="geometry" />
        </mxCell>
        <mxCell id="x1Og1Ffo0mNl0eoL6dnK-38" value="Да" style="edgeLabel;html=1;align=center;verticalAlign=middle;resizable=0;points=[];" parent="x1Og1Ffo0mNl0eoL6dnK-37" vertex="1" connectable="0">
          <mxGeometry x="-0.2571" y="-1" relative="1" as="geometry">
            <mxPoint as="offset" />
          </mxGeometry>
        </mxCell>
        <mxCell id="x1Og1Ffo0mNl0eoL6dnK-2" value="Счетчик&amp;nbsp;&lt;div&gt;меньше количества перемещений?&lt;/div&gt;" style="rhombus;whiteSpace=wrap;html=1;" parent="WIyWlLk6GJQsqaUBKTNV-1" vertex="1">
          <mxGeometry x="285" y="1070" width="170" height="100" as="geometry" />
        </mxCell>
        <mxCell id="x1Og1Ffo0mNl0eoL6dnK-12" value="" style="edgeStyle=orthogonalEdgeStyle;rounded=0;orthogonalLoop=1;jettySize=auto;html=1;" parent="WIyWlLk6GJQsqaUBKTNV-1" edge="1">
          <mxGeometry relative="1" as="geometry">
            <mxPoint x="340" y="1329" as="sourcePoint" />
            <mxPoint x="370" y="1410" as="targetPoint" />
          </mxGeometry>
        </mxCell>
        <mxCell id="x1Og1Ffo0mNl0eoL6dnK-19" value="Да" style="edgeLabel;html=1;align=center;verticalAlign=middle;resizable=0;points=[];" parent="x1Og1Ffo0mNl0eoL6dnK-12" vertex="1" connectable="0">
          <mxGeometry x="-0.1472" y="-3" relative="1" as="geometry">
            <mxPoint as="offset" />
          </mxGeometry>
        </mxCell>
        <mxCell id="x1Og1Ffo0mNl0eoL6dnK-31" value="Да" style="edgeLabel;html=1;align=center;verticalAlign=middle;resizable=0;points=[];" parent="x1Og1Ffo0mNl0eoL6dnK-12" vertex="1" connectable="0">
          <mxGeometry x="0.4237" y="-2" relative="1" as="geometry">
            <mxPoint as="offset" />
          </mxGeometry>
        </mxCell>
        <mxCell id="0VyIlZetMQkuFZgaHiZZ-17" style="edgeStyle=orthogonalEdgeStyle;rounded=0;orthogonalLoop=1;jettySize=auto;html=1;entryX=0.5;entryY=0;entryDx=0;entryDy=0;" parent="WIyWlLk6GJQsqaUBKTNV-1" source="x1Og1Ffo0mNl0eoL6dnK-10" target="x1Og1Ffo0mNl0eoL6dnK-32" edge="1">
          <mxGeometry relative="1" as="geometry" />
        </mxCell>
        <mxCell id="0VyIlZetMQkuFZgaHiZZ-18" value="Нет" style="edgeLabel;html=1;align=center;verticalAlign=middle;resizable=0;points=[];" parent="0VyIlZetMQkuFZgaHiZZ-17" vertex="1" connectable="0">
          <mxGeometry x="-0.8065" y="1" relative="1" as="geometry">
            <mxPoint x="1" as="offset" />
          </mxGeometry>
        </mxCell>
        <mxCell id="x1Og1Ffo0mNl0eoL6dnK-10" value="&lt;div&gt;&lt;br&gt;&lt;/div&gt;&amp;nbsp;Элемент массива&lt;div&gt;&amp;nbsp;с индексом, равным счетчику, меньше чем элемент массива&lt;/div&gt;&lt;div&gt;&amp;nbsp;с индексом равному&amp;nbsp;&lt;/div&gt;&lt;div&gt;счетчик + 1?&lt;/div&gt;" style="rhombus;whiteSpace=wrap;html=1;" parent="WIyWlLk6GJQsqaUBKTNV-1" vertex="1">
          <mxGeometry x="265" y="1219" width="210" height="140" as="geometry" />
        </mxCell>
        <mxCell id="x1Og1Ffo0mNl0eoL6dnK-14" value="" style="edgeStyle=orthogonalEdgeStyle;rounded=0;orthogonalLoop=1;jettySize=auto;html=1;" parent="WIyWlLk6GJQsqaUBKTNV-1" source="x1Og1Ffo0mNl0eoL6dnK-11" target="x1Og1Ffo0mNl0eoL6dnK-13" edge="1">
          <mxGeometry relative="1" as="geometry" />
        </mxCell>
        <mxCell id="x1Og1Ffo0mNl0eoL6dnK-11" value="Создать временную&amp;nbsp;&lt;div&gt;ячейку и поместить туда элемент массива с индексом, равному счетчику&lt;/div&gt;" style="whiteSpace=wrap;html=1;" parent="WIyWlLk6GJQsqaUBKTNV-1" vertex="1">
          <mxGeometry x="293.13" y="1410" width="155" height="80" as="geometry" />
        </mxCell>
        <mxCell id="x1Og1Ffo0mNl0eoL6dnK-16" value="" style="edgeStyle=orthogonalEdgeStyle;rounded=0;orthogonalLoop=1;jettySize=auto;html=1;" parent="WIyWlLk6GJQsqaUBKTNV-1" source="x1Og1Ffo0mNl0eoL6dnK-13" target="x1Og1Ffo0mNl0eoL6dnK-15" edge="1">
          <mxGeometry relative="1" as="geometry" />
        </mxCell>
        <mxCell id="x1Og1Ffo0mNl0eoL6dnK-13" value="Заменить элемент массива с индексом,&amp;nbsp; равному счетчику, на элемент массива с индексом, равному счетчику + 1" style="whiteSpace=wrap;html=1;" parent="WIyWlLk6GJQsqaUBKTNV-1" vertex="1">
          <mxGeometry x="293.13" y="1540" width="155" height="90" as="geometry" />
        </mxCell>
        <mxCell id="x1Og1Ffo0mNl0eoL6dnK-18" value="" style="edgeStyle=orthogonalEdgeStyle;rounded=0;orthogonalLoop=1;jettySize=auto;html=1;" parent="WIyWlLk6GJQsqaUBKTNV-1" source="x1Og1Ffo0mNl0eoL6dnK-15" target="x1Og1Ffo0mNl0eoL6dnK-17" edge="1">
          <mxGeometry relative="1" as="geometry" />
        </mxCell>
        <mxCell id="x1Og1Ffo0mNl0eoL6dnK-15" value="Заменить элемент&lt;div&gt;&amp;nbsp;массива с индексом, равному счетчик + 1, на элемент из временной ячейки&lt;/div&gt;" style="whiteSpace=wrap;html=1;" parent="WIyWlLk6GJQsqaUBKTNV-1" vertex="1">
          <mxGeometry x="291.88" y="1680" width="156.25" height="95" as="geometry" />
        </mxCell>
        <mxCell id="x1Og1Ffo0mNl0eoL6dnK-33" value="" style="edgeStyle=orthogonalEdgeStyle;rounded=0;orthogonalLoop=1;jettySize=auto;html=1;" parent="WIyWlLk6GJQsqaUBKTNV-1" source="x1Og1Ffo0mNl0eoL6dnK-17" target="x1Og1Ffo0mNl0eoL6dnK-32" edge="1">
          <mxGeometry relative="1" as="geometry" />
        </mxCell>
        <mxCell id="x1Og1Ffo0mNl0eoL6dnK-17" value="Установить флаг наличия перемещений = true" style="whiteSpace=wrap;html=1;" parent="WIyWlLk6GJQsqaUBKTNV-1" vertex="1">
          <mxGeometry x="310.635" y="1810" width="120" height="60" as="geometry" />
        </mxCell>
        <mxCell id="x1Og1Ffo0mNl0eoL6dnK-32" value="Счетчик =&amp;nbsp;&lt;div&gt;счетчик + 1&lt;/div&gt;" style="whiteSpace=wrap;html=1;" parent="WIyWlLk6GJQsqaUBKTNV-1" vertex="1">
          <mxGeometry x="129.995" y="1810" width="120" height="60" as="geometry" />
        </mxCell>
        <mxCell id="x1Og1Ffo0mNl0eoL6dnK-50" value="" style="edgeStyle=orthogonalEdgeStyle;rounded=0;orthogonalLoop=1;jettySize=auto;html=1;" parent="WIyWlLk6GJQsqaUBKTNV-1" source="x1Og1Ffo0mNl0eoL6dnK-41" target="x1Og1Ffo0mNl0eoL6dnK-48" edge="1">
          <mxGeometry relative="1" as="geometry" />
        </mxCell>
        <mxCell id="x1Og1Ffo0mNl0eoL6dnK-41" value="Правая граница перемещений = правая граница перемещений - 1" style="whiteSpace=wrap;html=1;" parent="WIyWlLk6GJQsqaUBKTNV-1" vertex="1">
          <mxGeometry x="780" y="1215" width="120" height="60" as="geometry" />
        </mxCell>
        <mxCell id="x1Og1Ffo0mNl0eoL6dnK-45" value="" style="edgeStyle=orthogonalEdgeStyle;rounded=0;orthogonalLoop=1;jettySize=auto;html=1;" parent="WIyWlLk6GJQsqaUBKTNV-1" source="x1Og1Ffo0mNl0eoL6dnK-46" target="x1Og1Ffo0mNl0eoL6dnK-47" edge="1">
          <mxGeometry relative="1" as="geometry" />
        </mxCell>
        <mxCell id="x1Og1Ffo0mNl0eoL6dnK-46" value="Задать счетчик&amp;nbsp; =&amp;nbsp; правой границе перемещений" style="rounded=1;whiteSpace=wrap;html=1;" parent="WIyWlLk6GJQsqaUBKTNV-1" vertex="1">
          <mxGeometry x="780" y="1435" width="120" height="60" as="geometry" />
        </mxCell>
        <mxCell id="x1Og1Ffo0mNl0eoL6dnK-47" value="Задать количество перемещений =&amp;nbsp;&lt;div&gt;левой границе перемещений&lt;/div&gt;" style="rounded=1;whiteSpace=wrap;html=1;" parent="WIyWlLk6GJQsqaUBKTNV-1" vertex="1">
          <mxGeometry x="780" y="1555" width="120" height="60" as="geometry" />
        </mxCell>
        <mxCell id="x1Og1Ffo0mNl0eoL6dnK-48" value="Флаг перемещений установить false" style="rounded=1;whiteSpace=wrap;html=1;" parent="WIyWlLk6GJQsqaUBKTNV-1" vertex="1">
          <mxGeometry x="780" y="1325" width="120" height="60" as="geometry" />
        </mxCell>
        <mxCell id="x1Og1Ffo0mNl0eoL6dnK-49" value="" style="endArrow=classic;html=1;rounded=0;exitX=0.5;exitY=1;exitDx=0;exitDy=0;entryX=0.5;entryY=0;entryDx=0;entryDy=0;" parent="WIyWlLk6GJQsqaUBKTNV-1" source="x1Og1Ffo0mNl0eoL6dnK-48" target="x1Og1Ffo0mNl0eoL6dnK-46" edge="1">
          <mxGeometry width="50" height="50" relative="1" as="geometry">
            <mxPoint x="670" y="1455" as="sourcePoint" />
            <mxPoint x="720" y="1405" as="targetPoint" />
          </mxGeometry>
        </mxCell>
        <mxCell id="x1Og1Ffo0mNl0eoL6dnK-51" value="" style="edgeStyle=orthogonalEdgeStyle;rounded=0;orthogonalLoop=1;jettySize=auto;html=1;" parent="WIyWlLk6GJQsqaUBKTNV-1" edge="1">
          <mxGeometry relative="1" as="geometry">
            <mxPoint x="842.5" y="1755" as="sourcePoint" />
            <Array as="points">
              <mxPoint x="843" y="1795" />
              <mxPoint x="843" y="1795" />
            </Array>
            <mxPoint x="842.3999999999996" y="1804.4866666666667" as="targetPoint" />
          </mxGeometry>
        </mxCell>
        <mxCell id="x1Og1Ffo0mNl0eoL6dnK-52" value="Да" style="edgeLabel;html=1;align=center;verticalAlign=middle;resizable=0;points=[];" parent="x1Og1Ffo0mNl0eoL6dnK-51" vertex="1" connectable="0">
          <mxGeometry x="-0.2571" y="-1" relative="1" as="geometry">
            <mxPoint as="offset" />
          </mxGeometry>
        </mxCell>
        <mxCell id="0VyIlZetMQkuFZgaHiZZ-13" value="" style="edgeStyle=orthogonalEdgeStyle;rounded=0;orthogonalLoop=1;jettySize=auto;html=1;" parent="WIyWlLk6GJQsqaUBKTNV-1" source="x1Og1Ffo0mNl0eoL6dnK-53" edge="1">
          <mxGeometry relative="1" as="geometry">
            <mxPoint x="1033.13" y="1705" as="targetPoint" />
          </mxGeometry>
        </mxCell>
        <mxCell id="0VyIlZetMQkuFZgaHiZZ-28" value="Нет" style="edgeLabel;html=1;align=center;verticalAlign=middle;resizable=0;points=[];" parent="0VyIlZetMQkuFZgaHiZZ-13" vertex="1" connectable="0">
          <mxGeometry x="-0.2684" y="-3" relative="1" as="geometry">
            <mxPoint as="offset" />
          </mxGeometry>
        </mxCell>
        <mxCell id="x1Og1Ffo0mNl0eoL6dnK-53" value="Счетчик&amp;nbsp;&lt;div&gt;больше количества перемещений?&lt;/div&gt;" style="rhombus;whiteSpace=wrap;html=1;" parent="WIyWlLk6GJQsqaUBKTNV-1" vertex="1">
          <mxGeometry x="758.1300000000001" y="1655" width="170" height="100" as="geometry" />
        </mxCell>
        <mxCell id="0VyIlZetMQkuFZgaHiZZ-10" value="" style="edgeStyle=orthogonalEdgeStyle;rounded=0;orthogonalLoop=1;jettySize=auto;html=1;" parent="WIyWlLk6GJQsqaUBKTNV-1" source="x1Og1Ffo0mNl0eoL6dnK-57" target="x1Og1Ffo0mNl0eoL6dnK-59" edge="1">
          <mxGeometry relative="1" as="geometry" />
        </mxCell>
        <mxCell id="0VyIlZetMQkuFZgaHiZZ-11" value="Да" style="edgeLabel;html=1;align=center;verticalAlign=middle;resizable=0;points=[];" parent="0VyIlZetMQkuFZgaHiZZ-10" vertex="1" connectable="0">
          <mxGeometry x="-0.2766" y="-2" relative="1" as="geometry">
            <mxPoint as="offset" />
          </mxGeometry>
        </mxCell>
        <mxCell id="x1Og1Ffo0mNl0eoL6dnK-57" value="&lt;div&gt;&lt;br&gt;&lt;/div&gt;&amp;nbsp;Элемент массива&lt;div&gt;&amp;nbsp;с индексом, равным счетчику, меньше чем элемент массива&lt;/div&gt;&lt;div&gt;&amp;nbsp;с индексом равному&amp;nbsp;&lt;/div&gt;&lt;div&gt;счетчик - 1?&lt;/div&gt;" style="rhombus;whiteSpace=wrap;html=1;" parent="WIyWlLk6GJQsqaUBKTNV-1" vertex="1">
          <mxGeometry x="738.1399999999999" y="1803.5" width="210" height="140" as="geometry" />
        </mxCell>
        <mxCell id="x1Og1Ffo0mNl0eoL6dnK-58" value="" style="edgeStyle=orthogonalEdgeStyle;rounded=0;orthogonalLoop=1;jettySize=auto;html=1;" parent="WIyWlLk6GJQsqaUBKTNV-1" source="x1Og1Ffo0mNl0eoL6dnK-59" target="x1Og1Ffo0mNl0eoL6dnK-61" edge="1">
          <mxGeometry relative="1" as="geometry" />
        </mxCell>
        <mxCell id="x1Og1Ffo0mNl0eoL6dnK-59" value="Создать временную&amp;nbsp;&lt;div&gt;ячейку и поместить туда элемент массива с индексом, равному счетчику&lt;/div&gt;" style="whiteSpace=wrap;html=1;" parent="WIyWlLk6GJQsqaUBKTNV-1" vertex="1">
          <mxGeometry x="765.6300000000001" y="1995" width="155" height="80" as="geometry" />
        </mxCell>
        <mxCell id="x1Og1Ffo0mNl0eoL6dnK-60" value="" style="edgeStyle=orthogonalEdgeStyle;rounded=0;orthogonalLoop=1;jettySize=auto;html=1;" parent="WIyWlLk6GJQsqaUBKTNV-1" source="x1Og1Ffo0mNl0eoL6dnK-61" target="x1Og1Ffo0mNl0eoL6dnK-63" edge="1">
          <mxGeometry relative="1" as="geometry" />
        </mxCell>
        <mxCell id="x1Og1Ffo0mNl0eoL6dnK-61" value="Заменить элемент массива с индексом,&amp;nbsp; равному счетчику, на элемент массива с индексом, равному счетчику - 1" style="whiteSpace=wrap;html=1;" parent="WIyWlLk6GJQsqaUBKTNV-1" vertex="1">
          <mxGeometry x="765.6300000000001" y="2125" width="155" height="90" as="geometry" />
        </mxCell>
        <mxCell id="x1Og1Ffo0mNl0eoL6dnK-62" value="" style="edgeStyle=orthogonalEdgeStyle;rounded=0;orthogonalLoop=1;jettySize=auto;html=1;" parent="WIyWlLk6GJQsqaUBKTNV-1" source="x1Og1Ffo0mNl0eoL6dnK-63" target="x1Og1Ffo0mNl0eoL6dnK-65" edge="1">
          <mxGeometry relative="1" as="geometry" />
        </mxCell>
        <mxCell id="x1Og1Ffo0mNl0eoL6dnK-63" value="Заменить элемент&lt;div&gt;&amp;nbsp;массива с индексом, равному счетчик - 1, на элемент из временной ячейки&lt;/div&gt;" style="whiteSpace=wrap;html=1;" parent="WIyWlLk6GJQsqaUBKTNV-1" vertex="1">
          <mxGeometry x="764.3800000000001" y="2265" width="156.25" height="95" as="geometry" />
        </mxCell>
        <mxCell id="x1Og1Ffo0mNl0eoL6dnK-64" value="" style="edgeStyle=orthogonalEdgeStyle;rounded=0;orthogonalLoop=1;jettySize=auto;html=1;" parent="WIyWlLk6GJQsqaUBKTNV-1" source="x1Og1Ffo0mNl0eoL6dnK-65" target="x1Og1Ffo0mNl0eoL6dnK-66" edge="1">
          <mxGeometry relative="1" as="geometry" />
        </mxCell>
        <mxCell id="x1Og1Ffo0mNl0eoL6dnK-65" value="Установить флаг наличия перемещений = true" style="whiteSpace=wrap;html=1;" parent="WIyWlLk6GJQsqaUBKTNV-1" vertex="1">
          <mxGeometry x="783.135" y="2395" width="120" height="60" as="geometry" />
        </mxCell>
        <mxCell id="x1Og1Ffo0mNl0eoL6dnK-66" value="Счетчик =&amp;nbsp;&lt;div&gt;счетчик - 1&lt;/div&gt;" style="whiteSpace=wrap;html=1;" parent="WIyWlLk6GJQsqaUBKTNV-1" vertex="1">
          <mxGeometry x="618.135" y="2395" width="120" height="60" as="geometry" />
        </mxCell>
        <mxCell id="x1Og1Ffo0mNl0eoL6dnK-74" value="" style="endArrow=classic;html=1;rounded=0;entryX=0.5;entryY=0;entryDx=0;entryDy=0;exitX=0.536;exitY=0.971;exitDx=0;exitDy=0;exitPerimeter=0;" parent="WIyWlLk6GJQsqaUBKTNV-1" source="x1Og1Ffo0mNl0eoL6dnK-47" target="x1Og1Ffo0mNl0eoL6dnK-53" edge="1">
          <mxGeometry width="50" height="50" relative="1" as="geometry">
            <mxPoint x="860" y="1735" as="sourcePoint" />
            <mxPoint x="910" y="1685" as="targetPoint" />
          </mxGeometry>
        </mxCell>
        <mxCell id="0VyIlZetMQkuFZgaHiZZ-5" value="" style="endArrow=classic;html=1;rounded=0;exitX=0;exitY=0.5;exitDx=0;exitDy=0;entryX=0.5;entryY=0;entryDx=0;entryDy=0;" parent="WIyWlLk6GJQsqaUBKTNV-1" target="x1Og1Ffo0mNl0eoL6dnK-66" edge="1">
          <mxGeometry width="50" height="50" relative="1" as="geometry">
            <mxPoint x="738.1300000000001" y="1874" as="sourcePoint" />
            <mxPoint x="1060" y="2095" as="targetPoint" />
            <Array as="points">
              <mxPoint x="678" y="1875" />
            </Array>
          </mxGeometry>
        </mxCell>
        <mxCell id="0VyIlZetMQkuFZgaHiZZ-6" value="Нет" style="edgeLabel;html=1;align=center;verticalAlign=middle;resizable=0;points=[];" parent="0VyIlZetMQkuFZgaHiZZ-5" vertex="1" connectable="0">
          <mxGeometry x="-0.8852" y="-2" relative="1" as="geometry">
            <mxPoint as="offset" />
          </mxGeometry>
        </mxCell>
        <mxCell id="0VyIlZetMQkuFZgaHiZZ-7" value="" style="endArrow=classic;html=1;rounded=0;exitX=0;exitY=0.5;exitDx=0;exitDy=0;" parent="WIyWlLk6GJQsqaUBKTNV-1" source="x1Og1Ffo0mNl0eoL6dnK-66" edge="1">
          <mxGeometry width="50" height="50" relative="1" as="geometry">
            <mxPoint x="1010" y="2145" as="sourcePoint" />
            <mxPoint x="840" y="1635" as="targetPoint" />
            <Array as="points">
              <mxPoint x="580" y="2425" />
              <mxPoint x="580" y="1635" />
            </Array>
          </mxGeometry>
        </mxCell>
        <mxCell id="0VyIlZetMQkuFZgaHiZZ-19" value="" style="endArrow=classic;html=1;rounded=0;exitX=0;exitY=0.5;exitDx=0;exitDy=0;" parent="WIyWlLk6GJQsqaUBKTNV-1" source="x1Og1Ffo0mNl0eoL6dnK-32" edge="1">
          <mxGeometry width="50" height="50" relative="1" as="geometry">
            <mxPoint x="460" y="1500" as="sourcePoint" />
            <mxPoint x="370" y="1037.3333740234375" as="targetPoint" />
            <Array as="points">
              <mxPoint x="70" y="1840" />
              <mxPoint x="70" y="1040" />
            </Array>
          </mxGeometry>
        </mxCell>
        <mxCell id="0VyIlZetMQkuFZgaHiZZ-21" value="Флаг наличия&amp;nbsp;&lt;div&gt;перемещений&lt;/div&gt;&lt;div&gt;&amp;nbsp;= false&lt;/div&gt;" style="rhombus;whiteSpace=wrap;html=1;" parent="WIyWlLk6GJQsqaUBKTNV-1" vertex="1">
          <mxGeometry x="750.6300000000001" y="1070" width="170" height="100" as="geometry" />
        </mxCell>
        <mxCell id="0VyIlZetMQkuFZgaHiZZ-22" value="" style="endArrow=classic;html=1;rounded=0;exitX=1;exitY=0.5;exitDx=0;exitDy=0;" parent="WIyWlLk6GJQsqaUBKTNV-1" source="x1Og1Ffo0mNl0eoL6dnK-2" edge="1">
          <mxGeometry width="50" height="50" relative="1" as="geometry">
            <mxPoint x="780" y="1030" as="sourcePoint" />
            <mxPoint x="750" y="1120" as="targetPoint" />
          </mxGeometry>
        </mxCell>
        <mxCell id="0VyIlZetMQkuFZgaHiZZ-23" value="Нет" style="edgeLabel;html=1;align=center;verticalAlign=middle;resizable=0;points=[];" parent="0VyIlZetMQkuFZgaHiZZ-22" vertex="1" connectable="0">
          <mxGeometry x="-0.2255" y="2" relative="1" as="geometry">
            <mxPoint as="offset" />
          </mxGeometry>
        </mxCell>
        <mxCell id="0VyIlZetMQkuFZgaHiZZ-25" value="" style="edgeStyle=orthogonalEdgeStyle;rounded=0;orthogonalLoop=1;jettySize=auto;html=1;" parent="WIyWlLk6GJQsqaUBKTNV-1" edge="1">
          <mxGeometry relative="1" as="geometry">
            <mxPoint x="835.04" y="1170" as="sourcePoint" />
            <mxPoint x="835.04" y="1220" as="targetPoint" />
          </mxGeometry>
        </mxCell>
        <mxCell id="0VyIlZetMQkuFZgaHiZZ-26" value="Нет" style="edgeLabel;html=1;align=center;verticalAlign=middle;resizable=0;points=[];" parent="0VyIlZetMQkuFZgaHiZZ-25" vertex="1" connectable="0">
          <mxGeometry x="-0.2" y="-1" relative="1" as="geometry">
            <mxPoint as="offset" />
          </mxGeometry>
        </mxCell>
        <mxCell id="0VyIlZetMQkuFZgaHiZZ-30" value="" style="edgeStyle=orthogonalEdgeStyle;rounded=0;orthogonalLoop=1;jettySize=auto;html=1;" parent="WIyWlLk6GJQsqaUBKTNV-1" source="0VyIlZetMQkuFZgaHiZZ-27" target="0VyIlZetMQkuFZgaHiZZ-29" edge="1">
          <mxGeometry relative="1" as="geometry" />
        </mxCell>
        <mxCell id="0VyIlZetMQkuFZgaHiZZ-31" value="Нет" style="edgeLabel;html=1;align=center;verticalAlign=middle;resizable=0;points=[];" parent="0VyIlZetMQkuFZgaHiZZ-30" vertex="1" connectable="0">
          <mxGeometry x="-0.2246" y="1" relative="1" as="geometry">
            <mxPoint as="offset" />
          </mxGeometry>
        </mxCell>
        <mxCell id="0VyIlZetMQkuFZgaHiZZ-34" value="" style="edgeStyle=orthogonalEdgeStyle;rounded=0;orthogonalLoop=1;jettySize=auto;html=1;" parent="WIyWlLk6GJQsqaUBKTNV-1" source="0VyIlZetMQkuFZgaHiZZ-27" edge="1">
          <mxGeometry relative="1" as="geometry">
            <mxPoint x="1349.9999999999995" y="2430" as="targetPoint" />
          </mxGeometry>
        </mxCell>
        <mxCell id="0VyIlZetMQkuFZgaHiZZ-39" value="Да" style="edgeLabel;html=1;align=center;verticalAlign=middle;resizable=0;points=[];" parent="0VyIlZetMQkuFZgaHiZZ-34" vertex="1" connectable="0">
          <mxGeometry x="-0.8833" y="2" relative="1" as="geometry">
            <mxPoint as="offset" />
          </mxGeometry>
        </mxCell>
        <mxCell id="0VyIlZetMQkuFZgaHiZZ-27" value="Флаг наличия&amp;nbsp;&lt;div&gt;перемещений&lt;/div&gt;&lt;div&gt;&amp;nbsp;= false&lt;/div&gt;" style="rhombus;whiteSpace=wrap;html=1;" parent="WIyWlLk6GJQsqaUBKTNV-1" vertex="1">
          <mxGeometry x="1033.13" y="1655" width="170" height="100" as="geometry" />
        </mxCell>
        <mxCell id="0VyIlZetMQkuFZgaHiZZ-29" value="Левая граница перемещений = левая граница перемещений + 1" style="whiteSpace=wrap;html=1;" parent="WIyWlLk6GJQsqaUBKTNV-1" vertex="1">
          <mxGeometry x="1058.13" y="1820" width="120" height="60" as="geometry" />
        </mxCell>
        <mxCell id="0VyIlZetMQkuFZgaHiZZ-32" value="+" style="endArrow=classic;html=1;rounded=0;exitX=0.5;exitY=1;exitDx=0;exitDy=0;" parent="WIyWlLk6GJQsqaUBKTNV-1" source="0VyIlZetMQkuFZgaHiZZ-29" edge="1">
          <mxGeometry width="50" height="50" relative="1" as="geometry">
            <mxPoint x="1260" y="2920" as="sourcePoint" />
            <mxPoint x="370" y="500" as="targetPoint" />
            <Array as="points">
              <mxPoint x="1118" y="2490" />
              <mxPoint x="-10" y="2490" />
              <mxPoint x="-10" y="500" />
            </Array>
          </mxGeometry>
        </mxCell>
        <mxCell id="0VyIlZetMQkuFZgaHiZZ-36" value="&amp;nbsp; &amp;nbsp;Stop" style="ellipse;whiteSpace=wrap;html=1;" parent="WIyWlLk6GJQsqaUBKTNV-1" vertex="1">
          <mxGeometry x="1290" y="2430" width="120" height="80" as="geometry" />
        </mxCell>
      </root>
    </mxGraphModel>
  </diagram>
</mxfile>
